<?xml version="1.0" standalone="no"?>
<!DOCTYPE svg PUBLIC "-//W3C//DTD SVG 20010904//EN"
 "http://www.w3.org/TR/2001/REC-SVG-20010904/DTD/svg10.dtd">
<svg version="1.0" xmlns="http://www.w3.org/2000/svg"
 width="500.000000pt" height="500.000000pt" viewBox="0 0 500.000000 500.000000"
 preserveAspectRatio="xMidYMid meet">

<g transform="translate(0.000000,500.000000) scale(0.100000,-0.100000)"
fill="#000000" stroke="none">
<path d="M0 2500 l0 -2500 2500 0 2500 0 0 2500 0 2500 -2500 0 -2500 0 0
-2500z m2440 1710 l0 -50 -55 0 -55 0 0 50 0 50 55 0 55 0 0 -50z m-690 -464
l0 -475 43 -3 42 -3 3 -52 3 -53 -45 0 -46 0 -2 -1187 -3 -1188 -95 0 -95 0
-3 1185 c-1 769 -6 1188 -12 1194 -13 13 -13 93 0 101 6 4 10 104 10 268 l0
262 -152 -270 c-110 -197 -153 -282 -157 -315 -5 -34 -10 -44 -23 -42 -11 2
-34 -30 -79 -110 -34 -62 -74 -133 -88 -158 -14 -25 -99 -178 -190 -341 -92
-163 -173 -306 -182 -319 l-16 -24 -79 43 c-43 24 -81 45 -83 47 -4 3 37 78
313 572 81 145 149 269 153 277 3 10 -2 15 -16 15 -20 0 -22 4 -19 53 l3 52
50 -3 50 -3 170 307 c212 383 219 397 288 521 32 56 57 106 57 112 0 7 35 11
100 11 l100 0 0 -474z m1786 342 c71 -40 87 -61 65 -83 -5 -6 -85 -147 -179
-315 -93 -168 -256 -460 -362 -650 -106 -190 -262 -470 -347 -622 -85 -153
-159 -278 -164 -278 -16 0 -159 84 -159 94 0 5 14 34 32 65 17 31 116 209 221
396 104 187 212 381 240 430 28 50 55 99 61 110 124 230 502 895 509 895 5 0
43 -19 83 -42z m-1098 -80 l-3 -53 -50 0 -50 0 -3 53 -3 52 56 0 56 0 -3 -52z
m0 -200 l-3 -53 -50 0 -50 0 -3 53 -3 52 56 0 56 0 -3 -52z m0 -200 l-3 -53
-50 0 -50 0 -3 53 -3 52 56 0 56 0 -3 -52z m0 -200 l-3 -53 -50 0 -50 0 -3 53
-3 52 56 0 56 0 -3 -52z m-2000 -180 c-3 -49 -5 -53 -28 -53 -22 0 -25 5 -28
39 -4 52 3 66 33 66 25 0 26 -2 23 -52z m202 -4 l0 -55 -52 3 -53 3 -3 39 c-5
59 1 66 58 66 l50 0 0 -56z m200 1 l0 -55 -55 0 -55 0 0 48 c0 27 3 52 7 55 3
4 28 7 55 7 l48 0 0 -55z m598 -7 l-3 -53 -50 0 -50 0 -3 53 -3 52 56 0 56 0
-3 -52z m602 -8 l0 -50 -55 0 -55 0 0 50 0 50 55 0 55 0 0 -50z m200 0 l0 -50
-55 0 -55 0 0 50 0 50 55 0 55 0 0 -50z m200 -6 l0 -55 -52 3 -53 3 -3 53 -3
52 55 0 56 0 0 -56z m198 -2 l3 -53 -53 3 -53 3 -3 39 c-5 60 1 68 55 64 l48
-3 3 -53z m202 3 l0 -55 -55 0 -55 0 0 48 c0 27 3 52 7 55 3 4 28 7 55 7 l48
0 0 -55z m-402 -197 l-3 -53 -50 0 -50 0 -3 53 -3 52 56 0 56 0 -3 -52z m0
-200 c-3 -50 -5 -53 -32 -56 -15 -2 -39 -1 -52 2 -21 6 -24 12 -24 56 l0 50
56 0 55 0 -3 -52z m2 -204 l0 -55 -52 3 -53 3 -3 39 c-5 59 1 66 58 66 l50 0
0 -56z m0 -200 l0 -55 -52 3 -53 3 -3 53 -3 52 55 0 56 0 0 -56z m97 -607 c18
-12 38 -32 45 -45 11 -21 10 -26 -7 -38 -25 -19 -30 -18 -44 10 -24 45 -96 60
-150 31 -57 -29 -76 -147 -35 -210 39 -60 152 -59 185 1 14 28 19 29 44 10 17
-12 18 -17 7 -38 -24 -44 -79 -73 -141 -73 -71 0 -118 26 -150 84 -42 77 -25
212 33 260 53 45 154 48 213 8z m1543 5 c30 -19 59 -53 60 -69 0 -7 -10 -17
-21 -24 -21 -11 -38 0 -39 23 0 14 -59 38 -90 38 -50 0 -86 -25 -104 -72 -22
-52 -14 -123 17 -162 30 -37 96 -47 143 -21 19 10 34 21 34 24 0 3 4 12 9 20
7 10 13 11 30 2 29 -16 26 -32 -10 -69 -54 -55 -146 -65 -217 -22 -95 58 -101
255 -10 323 51 38 145 43 198 9z m-1935 3 c64 -31 74 -108 21 -161 l-33 -33
43 -73 c24 -40 44 -77 44 -81 0 -5 -14 -7 -31 -5 -28 3 -37 12 -74 78 -34 60
-48 76 -69 78 l-26 3 0 -80 0 -81 -30 0 -30 0 0 185 0 185 76 0 c48 0 88 -6
109 -15z m575 -65 l0 -81 83 3 82 3 3 78 3 77 29 0 30 0 -1 -185 -2 -185 -28
0 -28 0 -3 78 -3 77 -82 3 -83 3 0 -81 0 -80 -30 0 -30 0 0 185 0 185 30 0 30
0 0 -80z m380 -105 l0 -185 -30 0 -30 0 0 185 0 185 30 0 30 0 0 -185z m360
160 c0 -24 -3 -25 -60 -25 l-60 0 0 -160 0 -160 -30 0 -30 0 0 160 0 160 -60
0 c-57 0 -60 1 -60 25 l0 25 150 0 150 0 0 -25z m300 0 c0 -25 0 -25 -95 -25
l-95 0 0 -55 0 -55 85 0 c84 0 85 0 85 -25 0 -25 -1 -25 -85 -25 l-85 0 0 -55
0 -55 95 0 c95 0 95 0 95 -25 l0 -25 -125 0 -125 0 0 185 0 185 125 0 125 0 0
-25z m710 0 c0 -24 -3 -25 -60 -25 l-60 0 0 -160 0 -160 -30 0 -30 0 0 160 0
160 -60 0 c-57 0 -60 1 -60 25 l0 25 150 0 150 0 0 -25z m-2291 -600 c40 -20
58 -75 26 -75 -8 0 -15 5 -15 12 0 28 -33 48 -80 48 -53 0 -70 -13 -70 -53 0
-23 7 -31 35 -43 19 -7 45 -14 58 -14 13 0 39 -10 58 -23 43 -29 51 -79 19
-119 -39 -50 -159 -46 -195 5 -19 28 -19 57 0 57 8 0 15 -6 15 -14 0 -8 12
-24 28 -36 21 -17 36 -21 69 -17 53 6 73 21 73 57 0 35 -14 46 -75 60 -77 16
-102 29 -115 59 -14 34 -1 72 32 95 28 20 100 21 137 1z m331 -4 c156 -83 72
-325 -103 -297 -112 18 -174 148 -114 237 51 76 141 101 217 60z m178 -124 l3
-137 74 0 c60 0 75 -3 75 -15 0 -12 -17 -15 -89 -15 l-89 0 -5 28 c-4 21 -2
267 2 280 1 2 7 2 14 0 9 -3 13 -43 15 -141z m232 29 c0 -105 2 -117 23 -141
13 -15 37 -28 58 -31 31 -5 42 -1 70 24 l34 30 1 114 c1 89 4 113 15 113 11 0
14 -24 14 -117 0 -103 -3 -120 -21 -145 -49 -66 -164 -66 -204 0 -17 27 -20
51 -20 150 0 97 3 117 15 117 12 0 15 -19 15 -114z m498 97 c2 -9 -11 -13 -47
-13 -63 0 -63 -2 -59 -163 3 -106 1 -117 -14 -117 -16 0 -18 13 -18 140 l0
140 -50 0 c-47 0 -60 7 -43 24 13 12 226 2 231 -11z m82 -138 c0 -131 -2 -155
-15 -155 -13 0 -15 24 -15 155 0 131 2 155 15 155 13 0 15 -24 15 -155z m300
137 c105 -52 116 -205 19 -269 -82 -54 -190 -31 -236 52 -78 138 73 290 217
217z m264 -97 c49 -64 96 -120 103 -126 11 -9 13 11 13 115 0 105 2 126 15
126 13 0 15 -24 15 -155 0 -141 -2 -155 -18 -155 -9 0 -22 8 -28 18 -6 9 -49
64 -95 122 l-84 105 -3 -122 c-2 -100 -5 -123 -17 -123 -13 0 -15 25 -15 155
0 117 3 155 13 155 6 0 52 -52 101 -115z m385 100 c40 -20 58 -75 26 -75 -8 0
-15 5 -15 10 0 24 -41 50 -78 50 -51 0 -75 -18 -70 -55 3 -31 33 -47 109 -59
51 -9 79 -38 79 -85 0 -26 -7 -44 -23 -59 -46 -43 -158 -37 -192 11 -19 28
-19 57 0 57 8 0 15 -6 15 -14 0 -8 12 -24 28 -36 46 -37 142 -16 142 32 0 40
-19 56 -77 68 -79 17 -100 28 -114 61 -14 36 2 81 34 97 32 16 104 14 136 -3z"/>
<path d="M2020 1716 l0 -56 41 0 c56 0 79 15 79 49 0 37 -20 52 -75 59 l-45 5
0 -57z"/>
<path d="M2362 1160 c-34 -21 -62 -71 -62 -111 0 -43 32 -90 75 -111 56 -27
107 -18 152 27 29 29 33 39 33 85 0 47 -4 56 -39 91 -33 33 -45 39 -82 39 -26
0 -57 -8 -77 -20z"/>
<path d="M3649 1157 c-126 -85 -9 -288 127 -221 51 25 77 63 77 112 0 107
-115 169 -204 109z"/>
</g>
</svg>
